<?xml version="1.0" encoding="UTF-8"?>
<svg xmlns="http://www.w3.org/2000/svg" xmlns:xlink="http://www.w3.org/1999/xlink" viewBox="0 0 604.07 586.93">
  <defs>
    <style>
      .cls-1 {
        fill: #b6cee2;
      }

      .cls-2 {
        fill: #f9b571;
      }

      .cls-3 {
        fill: #ff5333;
      }

      .cls-4 {
        isolation: isolate;
      }

      .cls-5 {
        fill: #d03d3f;
      }

      .cls-6 {
        fill: #63c49d;
      }

      .cls-7 {
        fill: #1f0000;
      }

      .cls-8 {
        fill: #fff;
      }

      .cls-9 {
        stroke: #f7cf9c;
      }

      .cls-9, .cls-10 {
        fill: none;
        stroke-linecap: round;
        stroke-miterlimit: 10;
      }

      .cls-11 {
        fill: #42160d;
      }

      .cls-12 {
        fill: #ff755c;
      }

      .cls-13 {
        fill: #fcb54c;
      }

      .cls-14 {
        fill: #fe9977;
      }

      .cls-15 {
        fill: #ffcfbf;
      }

      .cls-10 {
        stroke: #fe845b;
        stroke-width: .98px;
      }

      .cls-16 {
        fill: #915b24;
      }

      .cls-17 {
        fill: #f9c771;
      }

      .cls-18 {
        fill: #33282c;
        mix-blend-mode: soft-light;
        opacity: .6;
      }
    </style>
  </defs>
  <g class="cls-4">
    <g id="OBJECTS">
      <g>
        <path class="cls-15" d="M515.51,402.71c0,72.92-32.92,138.15-84.7,181.66H125.99c-51.78-43.51-84.7-108.73-84.7-181.66,0-130.95,106.16-237.11,237.11-237.11s237.11,106.16,237.11,237.11Z"/>
        <g>
          <g>
            <path class="cls-1" d="M265.76,273.82s-87.92,19.18-108.84,85.24c-20.93,66.05-21.44,199.53-21.44,199.53h282.52v-127.16l94.69,107.16v-72.83s-94.69-184.23-184.91-188.69l-62.01-3.25Z"/>
            <polygon class="cls-7" points="216.77 291.84 173.17 558.7 405.04 556.99 384.58 298.43 362.47 286.82 365.34 364.65 232.23 364.06 234.03 284.56 216.77 291.84"/>
          </g>
          <g>
            <g>
              <path class="cls-14" d="M322.39,239.46l8.36,34.93s-5.41,15.25-28.05,14.76-34.44-10.33-34.44-10.33l2.46-39.36h51.67Z"/>
              <path class="cls-3" d="M325.5,252.45c-5.6,8.5-22.16,26.95-56.76,18.7l1.98-31.69h51.67l3.11,12.98Z"/>
            </g>
            <g>
              <g>
                <path class="cls-2" d="M299.13,41.35S287.82.48,246.94,5.52c-40.88,5.04-58.79,52.33-62.71,94.76-3.92,42.43,50.01,88.34,24.17,126.42,0,0,6.63,8.4,20.07-5.04,0,0,7.89,13.38-2.41,24.59,0,0,31.54,13.36,54.57-15.32,23.04-28.68,18.5-189.57,18.5-189.57Z"/>
                <path class="cls-5" d="M272.26,65.97s-6.26-13.32-2.93-16.46c3.33-3.13,36.24-11.36,37.41-4.31,1.18,7.05,0,17.24,0,17.24l-34.48,3.53Z"/>
                <path class="cls-17" d="M217.13,141.42s-.15-81.18,73.34-87.09c73.49-5.92,84.2,72.03,84.76,92.22l-158.1-5.12Z"/>
              </g>
              <g>
                <g>
                  <g>
                    <circle class="cls-14" cx="217.13" cy="154.42" r="16.16"/>
                    <path class="cls-10" d="M226.15,152.23s-6.14,8.45-17.75.99"/>
                  </g>
                  <path class="cls-11" d="M211.83,172.89c0,3.8,1.22,6.87,2.72,6.87s2.72-3.08,2.72-6.87-1.22-6.87-2.72-6.87-2.72,3.08-2.72,6.87Z"/>
                </g>
                <g>
                  <g>
                    <path class="cls-14" d="M359.33,154.16c0,8.78,7.12,15.9,15.9,15.9s15.9-7.12,15.9-15.9-7.12-15.9-15.9-15.9-15.9,7.12-15.9,15.9Z"/>
                    <path class="cls-10" d="M384.46,150.72s-4.62,9.37-17.32,3.99"/>
                  </g>
                  <ellipse class="cls-11" cx="378.52" cy="170.06" rx="2.72" ry="6.87"/>
                </g>
                <g>
                  <path class="cls-14" d="M370.29,163.29c0,9.49-1.26,18.6-3.54,27.18-4.96,18.32-14.76,34.07-27.62,45.04-12.15,10.37-27.02,16.43-43.06,16.43-18.49,0-35.41-8.06-48.41-21.48v-.03c-12.7-13.11-21.64-31.21-24.68-51.78-.74-4.96-1.1-10.09-1.1-15.36,0-2.47.08-4.91.27-7.32,3.1-45.5,35.03-81.32,73.92-81.32,36.62,0,67.03,31.68,73.09,73.34.74,4.96,1.12,10.09,1.12,15.3Z"/>
                  <g>
                    <g>
                      <path class="cls-11" d="M279.36,171.66s-.03,0-.04,0c-1.24,0-2.26-.97-2.26-2.17-.02-4.06-3.45-7.35-7.64-7.33-4.25,0-7.58,3.35-7.55,7.41,0,1.2-.96,2.15-2.24,2.19-1.24,0-2.26-.97-2.26-2.17-.02-3.13,1.22-6.09,3.49-8.31,2.27-2.23,5.34-3.45,8.53-3.48,6.67-.04,12.13,5.2,12.16,11.67,0,1.19-.97,2.17-2.19,2.19Z"/>
                      <path class="cls-16" d="M251.75,145.64l25.47-9.7s2.83,5.25.63,7.14c-2.2,1.89-16.81,8.74-21.7,7.95-3.44-.56-4.4-5.38-4.4-5.38Z"/>
                    </g>
                    <g>
                      <path class="cls-11" d="M332.94,172.5s-.03,0-.04,0c-1.21,0-2.19-.94-2.2-2.12-.01-1.92-.79-3.73-2.19-5.08-1.4-1.35-3.26-2.09-5.24-2.08-1.99,0-3.82.77-5.21,2.14-1.39,1.37-2.15,3.18-2.13,5.1,0,1.18-.96,2.14-2.18,2.15-1.21,0-2.2-.95-2.2-2.12-.02-3.07,1.19-5.95,3.4-8.13,2.21-2.18,5.17-3.39,8.3-3.4,3.14-.02,6.11,1.16,8.34,3.32,2.24,2.16,3.48,5.03,3.5,8.1,0,1.16-.94,2.12-2.13,2.14Z"/>
                      <path class="cls-16" d="M340.32,147.39l-25.62-9.64s-1.93,5,.03,6.71c1.96,1.71,18.42,8.95,22.38,8.08,2.79-.62,3.21-5.16,3.21-5.16Z"/>
                    </g>
                    <g>
                      <path class="cls-12" d="M290.92,184.39c1.64,1.4,8.83,1.43,10.76.01.46-.35.6-1.6.52-3.36-.31-5.71-3.21-16.62-6.04-16.6-.22,0-.4.05-.62.19-3.39,1.87-6.19,18.44-4.62,19.75Z"/>
                      <path class="cls-18" d="M290.92,184.39c1.64,1.4,8.83,1.43,10.76.01.46-.35.6-1.6.52-3.36-7.67-1.91-7.43-11.11-6.66-16.41-3.39,1.87-6.19,18.44-4.62,19.75Z"/>
                    </g>
                    <path class="cls-8" d="M280.63,192.53l28.69.96s-1.38,11.28-14.38,10.85c-13-.43-14.31-11.81-14.31-11.81Z"/>
                  </g>
                  <path class="cls-17" d="M369.98,147.87c-6.24-42.91-37.32-74.05-73.91-74.05-38.77,0-71.6,36.06-74.74,82.09l-.02.2.08.18c4.42,10.13,8.21,17.19,11.25,20.98l1.81,2.25-.35-2.86c-.07-.57-6.33-57.23,45.94-81.4,1.13,4.52,6.81,22.52,25.85,24.75l.93.11v-.93c0-.15-.03-15.04,6.92-17.69,4.25,2.57,49.15,30.88,46.55,75.22l1.62.27,8.08-28.94-.02-.17Z"/>
                </g>
              </g>
            </g>
          </g>
        </g>
        <rect class="cls-8" x="21.73" y="558.58" width="521.99" height="25.77"/>
        <g>
          <image width="800" height="400" transform="translate(255.62 380.13) scale(.1)" xlink:href="../../../Downloads/New-Seasons-Logo.png"/>
          <path class="cls-6" d="M423.76,328.81s-30.32-57.53-13.78-71.77c16.54-14.24,27.1,16.78,27.1,16.78,0,0-.92-24.61,23.89-24.37,24.8.24,8.84,30.56,8.84,30.56,0,0,14.59-16.4,29.29-13.03,14.7,3.38-.92,106.95-75.33,61.83Z"/>
          <g>
            <polygon class="cls-13" points="321.47 558.7 321.47 302.82 332.88 322.54 349 302.82 369.33 322.54 389.29 302.82 407.32 322.54 429.19 302.82 443.77 322.54 464.2 302.82 479.61 322.54 491.58 302.82 503.05 323.42 513.6 302.82 513.6 558.7 321.47 558.7"/>
            <line class="cls-9" x1="496.89" y1="332.92" x2="496.89" y2="546.65"/>
          </g>
        </g>
      </g>
      <path class="cls-14" d="M515.77,529.73c-13.9-1.77-28.49-4.33-27.99-7.27.9-5.07,14.53-4.47,16.8-4.33-3.07-.3-26.89-2.77-25.76-7.33,1.23-4.87,26.33-2.67,26.33-2.67,0,0-28.19-8.2-26.66-12.36,1.5-4.03,30.06,4.6,31.49,5.03-1.6-.73-28.19-13-26.13-16.7,1.5-2.63,19.43,2.1,30.49,5.33.07.03.13.07.2.07.4.13.8.27,1.23.37,0,0,19.56,22.43,0,39.86Z"/>
    </g>
  </g>
</svg>